# xmcd
#
# Track frame offsets:
#	150
#	25102
#	50972
#	80082
#	96155
#	117130
#	141047
#	170950
#	195192
#	211945
#
# Disc length: 3179 seconds
#
# Revision: 2
# Processed by: cddbd v1.5.2PL0 Copyright (c) Steve Scherf et al.
# Submitted via: EZCDAudioConverter 8.0.2.1
#
DISCID=8a0c690a
DTITLE=Various Artist - Liên Khúc Dân Ca
DYEAR=1996
DGENRE=World Pop
TTITLE0=Thanh Tuyền - Mưa lệ
TTITLE1=Trang Thanh Lan, Quang Bình - Mải mê gác cu
TTITLE2=Mỹ Huyền - Khóc thầm
TTITLE3=Mỹ Linh, Thái Châu - Tơ hồng
TTITLE4=Phương Hồng Quế - Mưa đêm thương nhớ
TTITLE5=Chế Linh, Thanh Tuyền - Mưa bụi
TTITLE6=Phượng Mai, Phương Hồng Quế, Mỹ Huyền - LK Dân ca
TTITLE7=Phượng Mai - Xin trả tôi về
TTITLE8=Thanh Lan - Bà Rằng Bà Rí
TTITLE9=Mỹ Huyền - Cơn mê tình ái
EXTD=
EXTT0=
EXTT1=
EXTT2=
EXTT3=
EXTT4=
EXTT5=
EXTT6=
EXTT7=
EXTT8=
EXTT9=
PLAYORDER=
